<svg xmlns="http://www.w3.org/2000/svg" viewBox="0 0 1000 1260" width="1000" height="1260">
  <defs>
    <style>
      .title { font-family: 'PingFang SC','Microsoft YaHei',sans-serif; font-size: 18px; font-weight: bold; fill: #1a1a2e; }
      .subtitle { font-family: 'PingFang SC','Microsoft YaHei',sans-serif; font-size: 13px; font-weight: bold; fill: #333; }
      .text { font-family: 'PingFang SC','Microsoft YaHei',sans-serif; font-size: 11px; fill: #444; }
      .text-sm { font-family: 'PingFang SC','Microsoft YaHei',sans-serif; font-size: 10px; fill: #666; }
      .box { rx: 6; ry: 6; stroke-width: 1.5; }
      .box-ext { fill: #e3f2fd; stroke: #1976d2; }
      .box-main { fill: #fff3e0; stroke: #f57c00; }
      .box-core { fill: #f3e5f5; stroke: #7b1fa2; }
      .box-common { fill: #e8f5e9; stroke: #388e3c; }
      .box-3rd { fill: #fff8e1; stroke: #f9a825; }
      .box-test { fill: #e0f7fa; stroke: #00838f; }
      .box-hal { fill: #fce4ec; stroke: #c2185b; }
      .box-hw { fill: #efebe9; stroke: #5d4037; }
      .arrow { stroke: #888; stroke-width: 1.5; fill: none; marker-end: url(#arrowhead); }
      .arrow-dn { stroke: #666; stroke-width: 2; fill: none; marker-end: url(#arrowhead); }
      .sep { stroke: #bbb; stroke-width: 1; stroke-dasharray: 4,3; }
    </style>
    <marker id="arrowhead" markerWidth="8" markerHeight="6" refX="7" refY="3" orient="auto">
      <polygon points="0 0, 8 3, 0 6" fill="#666"/>
    </marker>
  </defs>

  <!-- Background -->
  <rect width="1000" height="1260" fill="#fafafa"/>

  <!-- ====== Layer: External Interfaces ====== -->
  <rect x="20" y="10" width="960" height="90" class="box box-ext"/>
  <text x="30" y="30" class="subtitle">外部交互层 (External Interfaces)</text>

  <rect x="40" y="42" width="200" height="42" rx="4" fill="#bbdefb" stroke="#1565c0" stroke-width="1"/>
  <text x="140" y="62" text-anchor="middle" class="text" font-weight="bold">Host PC 产测上位机</text>
  <text x="140" y="76" text-anchor="middle" class="text-sm">MQTT over TCP</text>

  <rect x="280" y="42" width="200" height="42" rx="4" fill="#bbdefb" stroke="#1565c0" stroke-width="1"/>
  <text x="380" y="62" text-anchor="middle" class="text" font-weight="bold">BLE 模块 (独立进程)</text>
  <text x="380" y="76" text-anchor="middle" class="text-sm">ble_factory_advertise</text>

  <rect x="520" y="42" width="440" height="42" rx="4" fill="#bbdefb" stroke="#1565c0" stroke-width="1"/>
  <text x="740" y="62" text-anchor="middle" class="text" font-weight="bold">MQTT Broker (mosquitto @ localhost:1883)</text>
  <text x="740" y="76" text-anchor="middle" class="text-sm">通配订阅 # / topic路由 / QoS2</text>

  <!-- Arrow down -->
  <line x1="500" y1="100" x2="500" y2="118" class="arrow-dn"/>

  <!-- ====== Layer: main.cpp ====== -->
  <rect x="20" y="120" width="960" height="160" class="box box-main"/>
  <text x="30" y="140" class="subtitle">主入口层 (main.cpp)</text>

  <rect x="40" y="152" width="180" height="36" rx="4" fill="#ffe0b2" stroke="#ef6c00" stroke-width="1"/>
  <text x="130" y="174" text-anchor="middle" class="text">版本/SN 打印</text>

  <rect x="240" y="152" width="180" height="36" rx="4" fill="#ffe0b2" stroke="#ef6c00" stroke-width="1"/>
  <text x="330" y="174" text-anchor="middle" class="text">TestEngine + MQTT 启动</text>

  <rect x="440" y="152" width="180" height="36" rx="4" fill="#ffe0b2" stroke="#ef6c00" stroke-width="1"/>
  <text x="530" y="174" text-anchor="middle" class="text">LED 线程启动</text>

  <rect x="640" y="152" width="180" height="36" rx="4" fill="#ffe0b2" stroke="#ef6c00" stroke-width="1"/>
  <text x="730" y="174" text-anchor="middle" class="text">Motor + Hall 初始化</text>

  <rect x="40" y="200" width="180" height="36" rx="4" fill="#ffe0b2" stroke="#ef6c00" stroke-width="1"/>
  <text x="130" y="218" text-anchor="middle" class="text">GPIO 初始化</text>
  <text x="130" y="230" text-anchor="middle" class="text-sm">white=170 red=169</text>

  <rect x="240" y="200" width="180" height="36" rx="4" fill="#ffe0b2" stroke="#ef6c00" stroke-width="1"/>
  <text x="330" y="218" text-anchor="middle" class="text">LVGL FactoryDisplay</text>
  <text x="330" y="230" text-anchor="middle" class="text-sm">framebuffer + TTF字体</text>

  <rect x="440" y="200" width="180" height="36" rx="4" fill="#ffe0b2" stroke="#ef6c00" stroke-width="1"/>
  <text x="530" y="218" text-anchor="middle" class="text">V4L2 Recorder 配置</text>
  <text x="530" y="230" text-anchor="middle" class="text-sm">recorder.json</text>

  <rect x="640" y="200" width="320" height="36" rx="4" fill="#ffe0b2" stroke="#ef6c00" stroke-width="1"/>
  <text x="800" y="218" text-anchor="middle" class="text">注册全部测试模块 (12个 register_xxx_tests)</text>
  <text x="800" y="230" text-anchor="middle" class="text-sm">主循环: LVGL taskHandler + 信号处理</text>

  <!-- Arrow down -->
  <line x1="500" y1="280" x2="500" y2="298" class="arrow-dn"/>

  <!-- ====== Layer: Core + Common + 3rd Party ====== -->
  <rect x="20" y="300" width="960" height="170" class="box box-core"/>
  <text x="30" y="320" class="subtitle">Core 层 (通用逻辑)</text>

  <!-- Core boxes -->
  <rect x="40" y="334" width="200" height="52" rx="4" fill="#e1bee7" stroke="#8e24aa" stroke-width="1"/>
  <text x="140" y="352" text-anchor="middle" class="text" font-weight="bold">TestEngine</text>
  <text x="140" y="366" text-anchor="middle" class="text-sm">MQTT客户端 / 命令路由分发</text>
  <text x="140" y="378" text-anchor="middle" class="text-sm">异步任务调度 / LED状态机</text>

  <rect x="260" y="334" width="160" height="52" rx="4" fill="#e1bee7" stroke="#8e24aa" stroke-width="1"/>
  <text x="340" y="352" text-anchor="middle" class="text" font-weight="bold">AsyncTaskQueue</text>
  <text x="340" y="366" text-anchor="middle" class="text-sm">2线程线程池</text>
  <text x="340" y="378" text-anchor="middle" class="text-sm">WorkerTask 提交与执行</text>

  <rect x="440" y="334" width="160" height="52" rx="4" fill="#e1bee7" stroke="#8e24aa" stroke-width="1"/>
  <text x="520" y="352" text-anchor="middle" class="text" font-weight="bold">MsgQueue</text>
  <text x="520" y="366" text-anchor="middle" class="text-sm">线程安全消息队列</text>
  <text x="520" y="378" text-anchor="middle" class="text-sm">MQTT回调 → Engine解耦</text>

  <rect x="40" y="400" width="200" height="52" rx="4" fill="#e1bee7" stroke="#8e24aa" stroke-width="1"/>
  <text x="140" y="418" text-anchor="middle" class="text" font-weight="bold">TestRegistry</text>
  <text x="140" y="432" text-anchor="middle" class="text-sm">registerTest(topic, handler, async)</text>
  <text x="140" y="444" text-anchor="middle" class="text-sm">registerRaw(topic, handler, async)</text>

  <!-- Common -->
  <rect x="280" y="400" width="180" height="52" rx="4" fill="#c8e6c9" stroke="#43a047" stroke-width="1"/>
  <text x="370" y="418" text-anchor="middle" class="text" font-weight="bold">Common / Protocol</text>
  <text x="370" y="432" text-anchor="middle" class="text-sm">Types.h: SN/BizID/MsgID 协议头</text>
  <text x="370" y="444" text-anchor="middle" class="text-sm">ShellUtils: shell_exec / read_sysfs</text>

  <!-- 3rd party -->
  <rect x="500" y="400" width="440" height="52" rx="4" fill="#fff9c4" stroke="#fbc02d" stroke-width="1"/>
  <text x="720" y="418" text-anchor="middle" class="text" font-weight="bold">第三方库</text>
  <text x="720" y="434" text-anchor="middle" class="text-sm">mosquitto (MQTT)  |  nlohmann/json (配置)  |  LVGL (UI)  |  rockchip_mpp (H.264硬编码)  |  cJSON / tmi8152</text>

  <!-- Arrow down -->
  <line x1="500" y1="470" x2="500" y2="488" class="arrow-dn"/>

  <!-- ====== Layer: Test Modules ====== -->
  <rect x="20" y="490" width="960" height="170" class="box box-test"/>
  <text x="30" y="510" class="subtitle">测试模块层 (Test Modules) — 12个模块，通过 register_xxx_tests 静态注册</text>

  <!-- Test module grid -->
  <rect x="40" y="524" width="100" height="44" rx="4" fill="#b2ebf2" stroke="#00acc1" stroke-width="1"/>
  <text x="90" y="542" text-anchor="middle" class="text" font-weight="bold">Battery</text>
  <text x="90" y="556" text-anchor="middle" class="text-sm">15R / 24R</text>

  <rect x="155" y="524" width="100" height="44" rx="4" fill="#b2ebf2" stroke="#00acc1" stroke-width="1"/>
  <text x="205" y="542" text-anchor="middle" class="text" font-weight="bold">Camera</text>
  <text x="205" y="556" text-anchor="middle" class="text-sm">18R / 22R / 28R</text>

  <rect x="270" y="524" width="100" height="44" rx="4" fill="#b2ebf2" stroke="#00acc1" stroke-width="1"/>
  <text x="320" y="542" text-anchor="middle" class="text" font-weight="bold">Wifi</text>
  <text x="320" y="556" text-anchor="middle" class="text-sm">16R / 37R</text>

  <rect x="385" y="524" width="100" height="44" rx="4" fill="#b2ebf2" stroke="#00acc1" stroke-width="1"/>
  <text x="435" y="542" text-anchor="middle" class="text" font-weight="bold">RTC</text>
  <text x="435" y="556" text-anchor="middle" class="text-sm">10R</text>

  <rect x="500" y="524" width="100" height="44" rx="4" fill="#b2ebf2" stroke="#00acc1" stroke-width="1"/>
  <text x="550" y="542" text-anchor="middle" class="text" font-weight="bold">Key</text>
  <text x="550" y="556" text-anchor="middle" class="text-sm">17R / 20R</text>

  <rect x="615" y="524" width="100" height="44" rx="4" fill="#b2ebf2" stroke="#00acc1" stroke-width="1"/>
  <text x="665" y="542" text-anchor="middle" class="text" font-weight="bold">Mic</text>
  <text x="665" y="556" text-anchor="middle" class="text-sm">11R / 23R</text>

  <rect x="730" y="524" width="100" height="44" rx="4" fill="#b2ebf2" stroke="#00acc1" stroke-width="1"/>
  <text x="780" y="542" text-anchor="middle" class="text" font-weight="bold">SoC</text>
  <text x="780" y="556" text-anchor="middle" class="text-sm">12R</text>

  <rect x="845" y="524" width="115" height="44" rx="4" fill="#b2ebf2" stroke="#00acc1" stroke-width="1"/>
  <text x="902" y="542" text-anchor="middle" class="text" font-weight="bold">TF Card</text>
  <text x="902" y="556" text-anchor="middle" class="text-sm">14R / BFA</text>

  <rect x="40" y="582" width="100" height="44" rx="4" fill="#b2ebf2" stroke="#00acc1" stroke-width="1"/>
  <text x="90" y="600" text-anchor="middle" class="text" font-weight="bold">Motor</text>
  <text x="90" y="614" text-anchor="middle" class="text-sm">191R-296R</text>

  <rect x="155" y="582" width="100" height="44" rx="4" fill="#b2ebf2" stroke="#00acc1" stroke-width="1"/>
  <text x="205" y="600" text-anchor="middle" class="text" font-weight="bold">Hall</text>
  <text x="205" y="614" text-anchor="middle" class="text-sm">21R / 27R</text>

  <rect x="270" y="582" width="100" height="44" rx="4" fill="#b2ebf2" stroke="#00acc1" stroke-width="1"/>
  <text x="320" y="600" text-anchor="middle" class="text" font-weight="bold">Aging</text>
  <text x="320" y="614" text-anchor="middle" class="text-sm">30R-36R</text>

  <rect x="385" y="582" width="100" height="44" rx="4" fill="#b2ebf2" stroke="#00acc1" stroke-width="1"/>
  <text x="435" y="600" text-anchor="middle" class="text" font-weight="bold">Sys</text>
  <text x="435" y="614" text-anchor="middle" class="text-sm">26R / 31R / 50R</text>

  <!-- Arrow down -->
  <line x1="500" y1="660" x2="500" y2="678" class="arrow-dn"/>

  <!-- ====== Layer: HAL ====== -->
  <rect x="20" y="680" width="960" height="260" class="box box-hal"/>
  <text x="30" y="700" class="subtitle">HAL 硬件抽象层 — RV1126B 专用实现（高耦合）</text>

  <!-- HAL Row 1 -->
  <rect x="40" y="714" width="170" height="56" rx="4" fill="#f8bbd0" stroke="#d81b60" stroke-width="1"/>
  <text x="125" y="732" text-anchor="middle" class="text" font-weight="bold">GpioController</text>
  <text x="125" y="748" text-anchor="middle" class="text-sm">sysfs GPIO 读写</text>
  <text x="125" y="760" text-anchor="middle" class="text-sm">GPIO号写死: 170/169/144/89</text>

  <rect x="225" y="714" width="170" height="56" rx="4" fill="#f8bbd0" stroke="#d81b60" stroke-width="1"/>
  <text x="310" y="732" text-anchor="middle" class="text" font-weight="bold">I2cController</text>
  <text x="310" y="748" text-anchor="middle" class="text-sm">i2c-dev 读写寄存器</text>
  <text x="310" y="760" text-anchor="middle" class="text-sm">用于 GC4663 摄像头probe</text>

  <rect x="410" y="714" width="170" height="56" rx="4" fill="#f8bbd0" stroke="#d81b60" stroke-width="1"/>
  <text x="495" y="732" text-anchor="middle" class="text" font-weight="bold">MotorController</text>
  <text x="495" y="748" text-anchor="middle" class="text-sm">水平/垂直电机控制</text>
  <text x="495" y="760" text-anchor="middle" class="text-sm">依赖 MotorHal / TMI8152</text>

  <rect x="595" y="714" width="170" height="56" rx="4" fill="#f8bbd0" stroke="#d81b60" stroke-width="1"/>
  <text x="680" y="732" text-anchor="middle" class="text" font-weight="bold">FactoryDisplay</text>
  <text x="680" y="748" text-anchor="middle" class="text-sm">LVGL framebuffer</text>
  <text x="680" y="760" text-anchor="middle" class="text-sm">TTF字体渲染 / 状态显示</text>

  <rect x="780" y="714" width="190" height="56" rx="4" fill="#f8bbd0" stroke="#d81b60" stroke-width="1"/>
  <text x="875" y="732" text-anchor="middle" class="text" font-weight="bold">RecorderController</text>
  <text x="875" y="748" text-anchor="middle" class="text-sm">IRecorder 注入点 (Singleton)</text>
  <text x="875" y="760" text-anchor="middle" class="text-sm">start() / stop() / isRecording()</text>

  <!-- HAL Row 2 -->
  <rect x="40" y="784" width="170" height="56" rx="4" fill="#f8bbd0" stroke="#d81b60" stroke-width="1"/>
  <text x="125" y="802" text-anchor="middle" class="text" font-weight="bold">MotorHal (C)</text>
  <text x="125" y="818" text-anchor="middle" class="text-sm">SPI 通信 / TMI8152寄存器</text>
  <text x="125" y="830" text-anchor="middle" class="text-sm">细分/速度/方向控制</text>

  <rect x="225" y="784" width="170" height="56" rx="4" fill="#f8bbd0" stroke="#d81b60" stroke-width="1"/>
  <text x="310" y="802" text-anchor="middle" class="text" font-weight="bold">HallSwitch (C)</text>
  <text x="310" y="818" text-anchor="middle" class="text-sm">霍尔开关检测</text>
  <text x="310" y="830" text-anchor="middle" class="text-sm">上限/下限位置</text>

  <rect x="410" y="784" width="170" height="56" rx="4" fill="#f8bbd0" stroke="#d81b60" stroke-width="1"/>
  <text x="495" y="802" text-anchor="middle" class="text" font-weight="bold">V4l2Recorder</text>
  <text x="495" y="818" text-anchor="middle" class="text-sm">V4L2 多路视频采集</text>
  <text x="495" y="830" text-anchor="middle" class="text-sm">ALSA音频 + MP4封装</text>

  <rect x="595" y="784" width="170" height="56" rx="4" fill="#f8bbd0" stroke="#d81b60" stroke-width="1"/>
  <text x="680" y="802" text-anchor="middle" class="text" font-weight="bold">MppEncoder</text>
  <text x="680" y="818" text-anchor="middle" class="text-sm">Rockchip MPP H.264硬编码</text>
  <text x="680" y="830" text-anchor="middle" class="text-sm">NV12 → AnnexB ES</text>

  <rect x="780" y="784" width="190" height="56" rx="4" fill="#f8bbd0" stroke="#d81b60" stroke-width="1"/>
  <text x="875" y="802" text-anchor="middle" class="text" font-weight="bold">AudioCapture / G711</text>
  <text x="875" y="818" text-anchor="middle" class="text-sm">ALSA音频采集</text>
  <text x="875" y="830" text-anchor="middle" class="text-sm">G.711A编码 + Mp4Muxer</text>

  <!-- NullRecorder fallback note -->
  <rect x="40" y="854" width="280" height="30" rx="4" fill="#fce4ec" stroke="#c2185b" stroke-width="1" stroke-dasharray="4,2"/>
  <text x="180" y="873" text-anchor="middle" class="text-sm">NullRecorder (无配置时的回退实现)</text>

  <!-- BleAdvertiser -->
  <rect x="340" y="854" width="280" height="30" rx="4" fill="#fce4ec" stroke="#c2185b" stroke-width="1" stroke-dasharray="4,2"/>
  <text x="480" y="873" text-anchor="middle" class="text-sm">BleAdvertiser (BLE广播，独立Makefile编译)</text>

  <!-- Arrow down -->
  <line x1="500" y1="940" x2="500" y2="958" class="arrow-dn"/>

  <!-- ====== Layer: Hardware ====== -->
  <rect x="20" y="960" width="960" height="180" class="box box-hw"/>
  <text x="30" y="980" class="subtitle">Linux Kernel / 硬件 (RV1126B 专用)</text>

  <rect x="40" y="994" width="130" height="50" rx="4" fill="#d7ccc8" stroke="#6d4c41" stroke-width="1"/>
  <text x="105" y="1012" text-anchor="middle" class="text" font-weight="bold">GPIO子系统</text>
  <text x="105" y="1028" text-anchor="middle" class="text-sm">/sys/class/gpio</text>
  <text x="105" y="1040" text-anchor="middle" class="text-sm">LED / Buzzer</text>

  <rect x="185" y="994" width="130" height="50" rx="4" fill="#d7ccc8" stroke="#6d4c41" stroke-width="1"/>
  <text x="250" y="1012" text-anchor="middle" class="text" font-weight="bold">I2C总线</text>
  <text x="250" y="1028" text-anchor="middle" class="text-sm">/dev/i2c-3 / i2c-4</text>
  <text x="250" y="1040" text-anchor="middle" class="text-sm">GC4663 OTP EEPROM</text>

  <rect x="330" y="994" width="130" height="50" rx="4" fill="#d7ccc8" stroke="#6d4c41" stroke-width="1"/>
  <text x="395" y="1012" text-anchor="middle" class="text" font-weight="bold">V4L2 / MIPI-CSI</text>
  <text x="395" y="1028" text-anchor="middle" class="text-sm">/dev/video*</text>
  <text x="395" y="1040" text-anchor="middle" class="text-sm">csi2-dphy0 / dphy3</text>

  <rect x="475" y="994" width="130" height="50" rx="4" fill="#d7ccc8" stroke="#6d4c41" stroke-width="1"/>
  <text x="540" y="1012" text-anchor="middle" class="text" font-weight="bold">ALSA音频</text>
  <text x="540" y="1028" text-anchor="middle" class="text-sm">hw:1,0 PDM mic</text>
  <text x="540" y="1040" text-anchor="middle" class="text-sm">16kHz 单声道</text>

  <rect x="620" y="994" width="130" height="50" rx="4" fill="#d7ccc8" stroke="#6d4c41" stroke-width="1"/>
  <text x="685" y="1012" text-anchor="middle" class="text" font-weight="bold">Framebuffer</text>
  <text x="685" y="1028" text-anchor="middle" class="text-sm">/dev/fb0</text>
  <text x="685" y="1040" text-anchor="middle" class="text-sm">工厂测试UI显示</text>

  <rect x="765" y="994" width="130" height="50" rx="4" fill="#d7ccc8" stroke="#6d4c41" stroke-width="1"/>
  <text x="830" y="1012" text-anchor="middle" class="text" font-weight="bold">SPI总线</text>
  <text x="830" y="1028" text-anchor="middle" class="text-sm">TMI8152电机驱动</text>
  <text x="830" y="1040" text-anchor="middle" class="text-sm">霍尔开关输入</text>

  <rect x="40" y="1060" width="280" height="36" rx="4" fill="#efebe9" stroke="#5d4037" stroke-width="1"/>
  <text x="180" y="1076" text-anchor="middle" class="text-sm">SoC: RV1126B (Cortex-A7 + NPU) | 电源管理: CW221X 电池芯片</text>
  <text x="180" y="1088" text-anchor="middle" class="text-sm">摄像头: 双路 GC4663 (MIPI-CSI) | WiFi/BT 模组</text>

  <rect x="340" y="1060" width="280" height="36" rx="4" fill="#efebe9" stroke="#5d4037" stroke-width="1"/>
  <text x="480" y="1076" text-anchor="middle" class="text-sm">RK MPP: Rockchip Media Process Platform (H.264硬编码)</text>
  <text x="480" y="1088" text-anchor="middle" class="text-sm">Buildroot rootfs: /oem/usr/conf / /device_data 等路径</text>

  <!-- Title -->
  <text x="500" y="1145" text-anchor="middle" class="title">当前产测固件架构图 — RV1126B 专用</text>
  <text x="500" y="1165" text-anchor="middle" class="text-sm" fill="#888">红色虚线框 = 高耦合 / 平台相关代码  |  箭头 = 调用/依赖方向</text>

  <!-- Legend -->
  <rect x="40" y="1180" width="140" height="22" rx="4" fill="#e3f2fd" stroke="#1976d2" stroke-width="1"/>
  <text x="110" y="1195" text-anchor="middle" class="text-sm">外部交互层</text>
  <rect x="190" y="1180" width="140" height="22" rx="4" fill="#fff3e0" stroke="#f57c00" stroke-width="1"/>
  <text x="260" y="1195" text-anchor="middle" class="text-sm">主入口层</text>
  <rect x="340" y="1180" width="140" height="22" rx="4" fill="#f3e5f5" stroke="#7b1fa2" stroke-width="1"/>
  <text x="410" y="1195" text-anchor="middle" class="text-sm">Core层</text>
  <rect x="490" y="1180" width="140" height="22" rx="4" fill="#e0f7fa" stroke="#00838f" stroke-width="1"/>
  <text x="560" y="1195" text-anchor="middle" class="text-sm">测试模块层</text>
  <rect x="640" y="1180" width="140" height="22" rx="4" fill="#fce4ec" stroke="#c2185b" stroke-width="1"/>
  <text x="710" y="1195" text-anchor="middle" class="text-sm">HAL层</text>
  <rect x="790" y="1180" width="170" height="22" rx="4" fill="#efebe9" stroke="#5d4037" stroke-width="1"/>
  <text x="875" y="1195" text-anchor="middle" class="text-sm">Kernel/Hardware</text>

  <text x="500" y="1220" text-anchor="middle" class="text-sm" fill="#c62828" font-weight="bold">⚠ 平台耦合警告: MppEncoder / MotorHal / CameraTest(GC4663) / BatteryTest(cw221X) / GPIO号 / OTP路径</text>
</svg>
